<?xml version="1.0" standalone="no"?>
<!DOCTYPE svg PUBLIC "-//W3C//DTD SVG 20010904//EN"
 "http://www.w3.org/TR/2001/REC-SVG-20010904/DTD/svg10.dtd">
<svg version="1.0" xmlns="http://www.w3.org/2000/svg"
 width="260.000000pt" height="260.000000pt" viewBox="0 0 260.000000 260.000000"
 preserveAspectRatio="xMidYMid meet">
<metadata>
Created by potrace 1.14, written by Peter Selinger 2001-2017
</metadata>
<g transform="translate(0.000000,260.000000) scale(0.100000,-0.100000)"
fill="#000000" stroke="none">
<path d="M54 2589 c-11 -6 -28 -23 -37 -39 -16 -26 -17 -126 -17 -1249 0 -856
3 -1227 11 -1244 6 -13 23 -31 39 -40 26 -16 128 -17 1249 -17 856 0 1227 3
1244 11 13 6 31 23 40 39 16 26 17 128 17 1249 0 856 -3 1227 -11 1244 -6 13
-23 31 -39 40 -26 16 -127 17 -1252 16 -801 0 -1230 -4 -1244 -10z m2034 -864
c77 -18 144 -52 197 -98 l40 -35 -60 -61 c-33 -34 -64 -61 -70 -61 -7 0 -22
11 -35 24 -68 73 -219 94 -316 44 -57 -30 -109 -84 -132 -137 -9 -22 -15 -67
-15 -112 -1 -63 4 -86 27 -132 46 -95 134 -147 246 -147 72 0 131 21 185 64
l41 34 65 -58 64 -58 -25 -27 c-136 -146 -426 -172 -612 -54 -135 86 -205 231
-196 404 5 100 29 166 89 250 54 75 186 152 289 168 58 10 159 6 218 -8z
m-1567 -11 c7 -8 80 -128 163 -266 83 -138 155 -251 160 -252 4 0 79 118 165
264 l157 265 82 3 82 3 0 -118 c0 -65 3 -263 7 -440 l6 -323 -101 0 -102 0 0
258 0 257 -127 -212 -128 -213 -45 0 -45 0 -125 208 -125 207 -3 -253 -2 -252
-95 0 -95 0 0 440 0 440 79 0 c59 0 82 -4 92 -16z"/>
</g>
</svg>
